<svg xmlns="http://www.w3.org/2000/svg" viewBox="0 0 56.7 56.7" enable-background="new 0 0 56.7 56.7"><path d="M28.3 56.6C12.7 56.6 0 43.9 0 28.3 0 12.7 12.7 0 28.3 0c15.6 0 28.3 12.7 28.3 28.3 0 15.6-12.7 28.3-28.3 28.3zm0-55.3c-14.9 0-27 12.1-27 27s12.1 27 27 27 27-12.1 27-27c.1-14.8-12.1-27-27-27z" fill="#fec81c"/><g><path fill="#fec81c" d="M21 40.9c-.1 0-.2 0-.3-.1-.2-.1-.4-.3-.4-.6v-4.1h-3.5c-1 0-1.9-.8-1.9-1.9v-14c0-1 .8-1.9 1.9-1.9h22.9c1 0 1.9.8 1.9 1.9v14.1c0 1-.8 1.9-1.9 1.9H27.1l-5.8 4.6c-.1.1-.2.1-.3.1zm-4.1-21.3c-.3 0-.6.3-.6.6v14.1c0 .3.3.6.6.6H21c.3 0 .6.3.6.6V39l4.9-3.9c.1-.1.2-.1.4-.1h12.9c.3 0 .6-.3.6-.6V20.2c0-.3-.3-.6-.6-.6H16.9z"/><path d="M35.7 25.9H21.6c-.3 0-.6-.3-.6-.6s.3-.6.6-.6h14.1c.3 0 .6.3.6.6.1.3-.2.6-.6.6z" fill="#fec81c"/><path d="M35.7 29.7H21.6c-.3 0-.6-.3-.6-.6s.3-.6.6-.6h14.1c.3 0 .6.3.6.6.1.4-.2.6-.6.6z" fill="#fec81c"/></g></svg>