<svg xmlns="http://www.w3.org/2000/svg" viewBox="0 0 56.7 56.7" enable-background="new 0 0 56.7 56.7"><path d="M28.3 56.7C12.7 56.7 0 44 0 28.3 0 12.7 12.7 0 28.3 0 44 0 56.7 12.7 56.7 28.3 56.7 44 44 56.7 28.3 56.7zm0-55.4c-14.9 0-27 12.1-27 27s12.2 27.1 27.1 27.1c14.9 0 27.1-12.1 27.1-27.1-.1-14.9-12.2-27-27.2-27z" fill="#fec81c"/><g fill="#fec81c"><path d="M17.6 31.7c-2.3 0-4.3-1.9-4.3-4.3 0-2.3 1.9-4.3 4.3-4.3 2.3 0 4.3 1.9 4.3 4.3-.1 2.4-2 4.3-4.3 4.3zm0-7.2c-1.6 0-3 1.3-3 3 0 1.6 1.3 3 3 3 1.6 0 3-1.3 3-3s-1.4-3-3-3z"/><g><path d="M37.6 20.9c-2.3 0-4.3-1.9-4.3-4.3 0-2.3 1.9-4.3 4.3-4.3 2.3 0 4.3 1.9 4.3 4.3s-1.9 4.3-4.3 4.3zm0-7.2c-1.6 0-3 1.3-3 3 0 1.6 1.3 3 3 3s3-1.3 3-3-1.3-3-3-3z"/><path d="M37.6 42.5c-2.3 0-4.3-1.9-4.3-4.3 0-2.3 1.9-4.3 4.3-4.3 2.3 0 4.3 1.9 4.3 4.3s-1.9 4.3-4.3 4.3zm0-7.3c-1.6 0-3 1.3-3 3 0 1.6 1.3 3 3 3s3-1.3 3-3c0-1.6-1.3-3-3-3z"/></g><g><path d="M33.9 36.9c-.1 0-.2 0-.3-.1l-12.9-7.4c-.3-.2-.4-.6-.2-.9.2-.3.6-.4.9-.2l12.9 7.4c.3.2.4.6.2.9-.2.2-.4.3-.6.3z"/><path d="M21 26.7c-.2 0-.4-.1-.5-.3-.2-.3-.1-.7.2-.9l12.9-7.4c.3-.2.7-.1.9.2.2.3.1.7-.2.9l-12.9 7.4c-.1 0-.2.1-.4.1z"/></g></g></svg>