<svg xmlns="http://www.w3.org/2000/svg" viewBox="0 0 56.7 56.7" enable-background="new 0 0 56.7 56.7"><path d="M28.3 56.6C12.7 56.6 0 43.9 0 28.3 0 12.7 12.7 0 28.3 0s28.3 12.7 28.3 28.3c0 15.6-12.7 28.3-28.3 28.3zm0-55.3c-14.9 0-27 12.1-27 27s12.1 27 27 27 27-12.1 27-27c0-14.8-12.1-27-27-27z" fill="#fec81c"/><path d="M26.3 44.3L10.7 28.7 24.5 15h15.6v15.6L26.3 44.3zM12.5 28.7l13.8 13.8L38.8 30V16.2H25L12.5 28.7z" fill="#fec81c"/><path d="M21.2 31.3c-.2 0-.3-.1-.4-.2-.2-.2-.2-.6 0-.9L28 23c.2-.2.6-.2.9 0 .2.2.2.6 0 .9l-7.2 7.2c-.2.1-.4.2-.5.2z" fill="#fec81c"/><path d="M24.4 34.5c-.2 0-.3-.1-.4-.2-.2-.2-.2-.6 0-.9l7.2-7.2c.2-.2.6-.2.9 0 .2.2.2.6 0 .9l-7.2 7.2c-.2.1-.3.2-.5.2z" fill="#fec81c"/><path d="M33.9 23.5c-.6 0-1.2-.2-1.7-.7-.9-.9-.9-2.4 0-3.3.4-.4 1-.7 1.7-.7.6 0 1.2.2 1.7.7.9.9.9 2.4 0 3.3-.5.5-1.1.7-1.7.7zm0-3.4c-.3 0-.6.1-.8.3-.4.4-.4 1.1 0 1.6.4.4 1.1.4 1.5 0 .4-.4.4-1.1 0-1.6-.2-.2-.5-.3-.7-.3z" fill="#fec81c"/></svg>