<?xml version="1.0" encoding="UTF-8" standalone="no"?>
<!-- Created with Inkscape (http://www.inkscape.org/) -->

<svg
   xmlns:dc="http://purl.org/dc/elements/1.1/"
   xmlns:cc="http://creativecommons.org/ns#"
   xmlns:rdf="http://www.w3.org/1999/02/22-rdf-syntax-ns#"
   xmlns:svg="http://www.w3.org/2000/svg"
   xmlns="http://www.w3.org/2000/svg"
   xmlns:sodipodi="http://sodipodi.sourceforge.net/DTD/sodipodi-0.dtd"
   xmlns:inkscape="http://www.inkscape.org/namespaces/inkscape"
   id="svg2"
   version="1.1"
   inkscape:version="0.48.5 r10040"
   width="1601.25"
   height="55"
   xml:space="preserve"
   sodipodi:docname="frame.svg"><metadata
     id="metadata8"><rdf:RDF><cc:Work
         rdf:about=""><dc:format>image/svg+xml</dc:format><dc:type
           rdf:resource="http://purl.org/dc/dcmitype/StillImage" /><dc:title /></cc:Work></rdf:RDF></metadata><defs
     id="defs6"><clipPath
       clipPathUnits="userSpaceOnUse"
       id="clipPath16"><path
         d="M 0,900 1400,900 1400,0 0,0 0,900 z"
         id="path18"
         inkscape:connector-curvature="0" /></clipPath><clipPath
       clipPathUnits="userSpaceOnUse"
       id="clipPath28"><path
         d="m 155.379,744.209 9.419,0 0,-9.418 -9.419,0 0,9.418 z"
         id="path30"
         inkscape:connector-curvature="0" /></clipPath><clipPath
       clipPathUnits="userSpaceOnUse"
       id="clipPath44"><path
         d="m 170.791,744.209 9.418,0 0,-9.418 -9.418,0 0,9.418 z"
         id="path46"
         inkscape:connector-curvature="0" /></clipPath><clipPath
       clipPathUnits="userSpaceOnUse"
       id="clipPath60"><path
         d="m 186.202,744.209 9.419,0 0,-9.418 -9.419,0 0,9.418 z"
         id="path62"
         inkscape:connector-curvature="0" /></clipPath></defs><sodipodi:namedview
     pagecolor="#ffffff"
     bordercolor="#666666"
     borderopacity="1"
     objecttolerance="10"
     gridtolerance="10"
     guidetolerance="10"
     inkscape:pageopacity="0"
     inkscape:pageshadow="2"
     inkscape:window-width="1920"
     inkscape:window-height="1056"
     id="namedview4"
     showgrid="false"
     inkscape:zoom="1.1866823"
     inkscape:cx="1290.0246"
     inkscape:cy="-214.76531"
     inkscape:window-x="0"
     inkscape:window-y="24"
     inkscape:window-maximized="1"
     inkscape:current-layer="g10" /><g
     id="g10"
     inkscape:groupmode="layer"
     inkscape:label="chrome-flat-browser"
     transform="matrix(1.25,0,0,-1.25,0,55)"><path
       style="fill:#cccccc;fill-opacity:1;fill-rule:nonzero;stroke:none"
       d="m 0.00834212,0 0,28.75 1601.88895788,0 0,-28.75 z"
       transform="matrix(0.8,0,0,-0.8,0,44)"
       id="path22"
       inkscape:connector-curvature="0"
       sodipodi:nodetypes="ccccc" /><g
       clip-path="url(#clipPath28)"
       id="g34"
       style="opacity:0.71000701"
       transform="translate(-147,-708)"><g
         transform="translate(164.7979,739.5)"
         id="g36"><path
           d="m 0,0 c 0,-2.601 -2.108,-4.709 -4.709,-4.709 -2.601,0 -4.709,2.108 -4.709,4.709 0,2.601 2.108,4.709 4.709,4.709 C -2.108,4.709 0,2.601 0,0"
           style="fill:#e74c3c;fill-opacity:1;fill-rule:nonzero;stroke:none"
           id="path38"
           inkscape:connector-curvature="0" /></g></g><g
       clip-path="url(#clipPath44)"
       id="g50"
       style="opacity:0.71000701"
       transform="translate(-147,-708)"><g
         transform="translate(180.209,739.5)"
         id="g52"><path
           d="m 0,0 c 0,-2.601 -2.108,-4.709 -4.709,-4.709 -2.601,0 -4.709,2.108 -4.709,4.709 0,2.601 2.108,4.709 4.709,4.709 C -2.108,4.709 0,2.601 0,0"
           style="fill:#f1c40f;fill-opacity:1;fill-rule:nonzero;stroke:none"
           id="path54"
           inkscape:connector-curvature="0" /></g></g><g
       clip-path="url(#clipPath60)"
       id="g66"
       style="opacity:0.71000701"
       transform="translate(-147,-708)"><g
         transform="translate(195.6206,739.5)"
         id="g68"><path
           d="m 0,0 c 0,-2.601 -2.108,-4.709 -4.709,-4.709 -2.601,0 -4.709,2.108 -4.709,4.709 0,2.601 2.108,4.709 4.709,4.709 C -2.108,4.709 0,2.601 0,0"
           style="fill:#2ecc71;fill-opacity:1;fill-rule:nonzero;stroke:none"
           id="path70"
           inkscape:connector-curvature="0" /></g></g><path
       inkscape:connector-curvature="0"
       id="path74"
       style="fill:#e6e6e6;fill-opacity:1;fill-rule:nonzero;stroke:none"
       d="m 167,34.9565 c -0.396,1.189 -1.343,2.043 -3,2.043 l -91,0 c -1.657,0 -2.604,-0.896 -3,-2.043 l -4,-12.427 c -0.344,-0.998 -2,-1.53 -2,-1.53 l 109,0 c 0,0 -1.656,0.438 -2,1.53 l -4,12.427 z" /><path
       d="M 1283.6903,0 0,0 0,21 1283.6903,21 z"
       style="fill:#e6e6e6;fill-opacity:1;fill-rule:nonzero;stroke:none"
       id="path80"
       inkscape:connector-curvature="0"
       sodipodi:nodetypes="ccccc" /></g></svg>