<?xml version="1.0" encoding="utf-8"?>
<!-- Generator: Adobe Illustrator 17.1.0, SVG Export Plug-In . SVG Version: 6.00 Build 0)  -->
<!DOCTYPE svg PUBLIC "-//W3C//DTD SVG 1.1//EN" "http://www.w3.org/Graphics/SVG/1.1/DTD/svg11.dtd">
<svg version="1.1" id="Laag_1" xmlns="http://www.w3.org/2000/svg" xmlns:xlink="http://www.w3.org/1999/xlink" x="0px" y="0px"
	 viewBox="0 0 56.7 56.7" enable-background="new 0 0 56.7 56.7" xml:space="preserve">
<g>
	<g>
		<path fill="#ECB026" d="M28.3,56.6c-15.6,0-28.3-12.7-28.3-28.3c0-15.6,12.7-28.3,28.3-28.3c15.6,0,28.3,12.7,28.3,28.3
			C56.6,43.9,43.9,56.6,28.3,56.6L28.3,56.6z M28.3,1.3c-14.9,0-27,12.1-27,27c0,14.9,12.1,27,27,27c14.9,0,27-12.1,27-27
			C55.4,13.5,43.2,1.3,28.3,1.3L28.3,1.3z"/>
	</g>
</g>
<g>
	<g>
		<path fill="#ECB026" d="M21,40.9c-0.1,0-0.2,0-0.3-0.1c-0.2-0.1-0.4-0.3-0.4-0.6v-4.1h-3.5c-1,0-1.9-0.8-1.9-1.9V20.2
			c0-1,0.8-1.9,1.9-1.9h22.9c1,0,1.9,0.8,1.9,1.9v14.1c0,1-0.8,1.9-1.9,1.9H27.1l-5.8,4.6C21.2,40.9,21.1,40.9,21,40.9L21,40.9z
			 M16.9,19.6c-0.3,0-0.6,0.3-0.6,0.6v14.1c0,0.3,0.3,0.6,0.6,0.6H21c0.3,0,0.6,0.3,0.6,0.6V39l4.9-3.9c0.1-0.1,0.2-0.1,0.4-0.1
			h12.9c0.3,0,0.6-0.3,0.6-0.6V20.2c0-0.3-0.3-0.6-0.6-0.6H16.9L16.9,19.6z"/>
	</g>
	<g>
		<path fill="#ECB026" d="M35.7,25.9H21.6c-0.3,0-0.6-0.3-0.6-0.6c0-0.3,0.3-0.6,0.6-0.6h14.1c0.3,0,0.6,0.3,0.6,0.6
			C36.4,25.6,36.1,25.9,35.7,25.9L35.7,25.9z"/>
	</g>
	<g>
		<path fill="#ECB026" d="M35.7,29.7H21.6c-0.3,0-0.6-0.3-0.6-0.6c0-0.3,0.3-0.6,0.6-0.6h14.1c0.3,0,0.6,0.3,0.6,0.6
			C36.4,29.5,36.1,29.7,35.7,29.7L35.7,29.7z"/>
	</g>
</g>
</svg>
