<?xml version="1.0" encoding="utf-8"?>
<!-- Generator: Adobe Illustrator 17.1.0, SVG Export Plug-In . SVG Version: 6.00 Build 0)  -->
<!DOCTYPE svg PUBLIC "-//W3C//DTD SVG 1.1//EN" "http://www.w3.org/Graphics/SVG/1.1/DTD/svg11.dtd">
<svg version="1.1" id="Laag_1" xmlns="http://www.w3.org/2000/svg" xmlns:xlink="http://www.w3.org/1999/xlink" x="0px" y="0px"
	 viewBox="0 0 56.7 56.7" enable-background="new 0 0 56.7 56.7" xml:space="preserve">
<g>
	<g>
		<path fill="#ECB026" d="M28.3,56.7C12.7,56.7,0,44,0,28.3C0,12.7,12.7,0,28.3,0C44,0,56.7,12.7,56.7,28.3
			C56.7,44,44,56.7,28.3,56.7L28.3,56.7z M28.3,1.3C13.4,1.3,1.3,13.4,1.3,28.3c0,14.9,12.2,27.1,27.1,27.1
			c14.9,0,27.1-12.1,27.1-27.1C55.4,13.4,43.3,1.3,28.3,1.3L28.3,1.3z"/>
	</g>
</g>
<g>
	<g>
		<path fill="#ECB026" d="M17.6,31.7c-2.3,0-4.3-1.9-4.3-4.3c0-2.3,1.9-4.3,4.3-4.3c2.3,0,4.3,1.9,4.3,4.3
			C21.8,29.8,19.9,31.7,17.6,31.7L17.6,31.7z M17.6,24.5c-1.6,0-3,1.3-3,3c0,1.6,1.3,3,3,3c1.6,0,3-1.3,3-3
			C20.6,25.8,19.2,24.5,17.6,24.5L17.6,24.5z"/>
	</g>
	<g>
		<g>
			<path fill="#ECB026" d="M37.6,20.9c-2.3,0-4.3-1.9-4.3-4.3c0-2.3,1.9-4.3,4.3-4.3c2.3,0,4.3,1.9,4.3,4.3
				C41.9,19,40,20.9,37.6,20.9L37.6,20.9z M37.6,13.7c-1.6,0-3,1.3-3,3c0,1.6,1.3,3,3,3c1.7,0,3-1.3,3-3
				C40.6,15,39.3,13.7,37.6,13.7L37.6,13.7z"/>
		</g>
		<g>
			<path fill="#ECB026" d="M37.6,42.5c-2.3,0-4.3-1.9-4.3-4.3c0-2.3,1.9-4.3,4.3-4.3c2.3,0,4.3,1.9,4.3,4.3
				C41.9,40.6,40,42.5,37.6,42.5L37.6,42.5z M37.6,35.2c-1.6,0-3,1.3-3,3c0,1.6,1.3,3,3,3c1.7,0,3-1.3,3-3
				C40.6,36.6,39.3,35.2,37.6,35.2L37.6,35.2z"/>
		</g>
	</g>
	<g>
		<g>
			<path fill="#ECB026" d="M33.9,36.9c-0.1,0-0.2,0-0.3-0.1l-12.9-7.4c-0.3-0.2-0.4-0.6-0.2-0.9c0.2-0.3,0.6-0.4,0.9-0.2l12.9,7.4
				c0.3,0.2,0.4,0.6,0.2,0.9C34.3,36.8,34.1,36.9,33.9,36.9L33.9,36.9z"/>
		</g>
		<g>
			<path fill="#ECB026" d="M21,26.7c-0.2,0-0.4-0.1-0.5-0.3c-0.2-0.3-0.1-0.7,0.2-0.9l12.9-7.4c0.3-0.2,0.7-0.1,0.9,0.2
				c0.2,0.3,0.1,0.7-0.2,0.9l-12.9,7.4C21.3,26.6,21.2,26.7,21,26.7L21,26.7z"/>
		</g>
	</g>
</g>
</svg>
