<?xml version="1.0" encoding="UTF-8" standalone="no"?>
<!-- Generator: Adobe Illustrator 17.1.0, SVG Export Plug-In . SVG Version: 6.00 Build 0)  -->

<svg
   xmlns:dc="http://purl.org/dc/elements/1.1/"
   xmlns:cc="http://creativecommons.org/ns#"
   xmlns:rdf="http://www.w3.org/1999/02/22-rdf-syntax-ns#"
   xmlns:svg="http://www.w3.org/2000/svg"
   xmlns="http://www.w3.org/2000/svg"
   xmlns:sodipodi="http://sodipodi.sourceforge.net/DTD/sodipodi-0.dtd"
   xmlns:inkscape="http://www.inkscape.org/namespaces/inkscape"
   version="1.1"
   id="Laag_1"
   x="0px"
   y="0px"
   viewBox="0 0 56.7 56.7"
   enable-background="new 0 0 56.7 56.7"
   xml:space="preserve"
   inkscape:version="0.48.5 r10040"
   width="100%"
   height="100%"
   sodipodi:docname="share.svg"><metadata
     id="metadata39"><rdf:RDF><cc:Work
         rdf:about=""><dc:format>image/svg+xml</dc:format><dc:type
           rdf:resource="http://purl.org/dc/dcmitype/StillImage" /></cc:Work></rdf:RDF></metadata><defs
     id="defs37" /><sodipodi:namedview
     pagecolor="#ffffff"
     bordercolor="#666666"
     borderopacity="1"
     objecttolerance="10"
     gridtolerance="10"
     guidetolerance="10"
     inkscape:pageopacity="0"
     inkscape:pageshadow="2"
     inkscape:window-width="1920"
     inkscape:window-height="1056"
     id="namedview35"
     showgrid="false"
     inkscape:zoom="8.324515"
     inkscape:cx="12.522264"
     inkscape:cy="33.978796"
     inkscape:window-x="1920"
     inkscape:window-y="24"
     inkscape:window-maximized="1"
     inkscape:current-layer="Laag_1" /><path
     d="M 28.3,56.7 C 12.7,56.7 0,44 0,28.3 0,12.7 12.7,0 28.3,0 44,0 56.7,12.7 56.7,28.3 56.7,44 44,56.7 28.3,56.7 l 0,0 z m 0,-55.4 c -14.9,0 -27,12.1 -27,27 0,14.9 12.2,27.1 27.1,27.1 14.9,0 27.1,-12.1 27.1,-27.1 C 55.4,13.4 43.3,1.3 28.3,1.3 l 0,0 z"
     id="path7"
     inkscape:connector-curvature="0"
     style="fill:#fec81c;fill-opacity:1" /><g
     id="g9"
     style="fill:#fec81c;fill-opacity:1"><g
       id="g11"
       style="fill:#fec81c;fill-opacity:1"><path
         fill="#ECB026"
         d="M17.6,31.7c-2.3,0-4.3-1.9-4.3-4.3c0-2.3,1.9-4.3,4.3-4.3c2.3,0,4.3,1.9,4.3,4.3    C21.8,29.8,19.9,31.7,17.6,31.7L17.6,31.7z M17.6,24.5c-1.6,0-3,1.3-3,3c0,1.6,1.3,3,3,3c1.6,0,3-1.3,3-3    C20.6,25.8,19.2,24.5,17.6,24.5L17.6,24.5z"
         id="path13"
         style="fill:#fec81c;fill-opacity:1" /></g><g
       id="g15"
       style="fill:#fec81c;fill-opacity:1"><g
         id="g17"
         style="fill:#fec81c;fill-opacity:1"><path
           fill="#ECB026"
           d="M37.6,20.9c-2.3,0-4.3-1.9-4.3-4.3c0-2.3,1.9-4.3,4.3-4.3c2.3,0,4.3,1.9,4.3,4.3     C41.9,19,40,20.9,37.6,20.9L37.6,20.9z M37.6,13.7c-1.6,0-3,1.3-3,3c0,1.6,1.3,3,3,3c1.7,0,3-1.3,3-3     C40.6,15,39.3,13.7,37.6,13.7L37.6,13.7z"
           id="path19"
           style="fill:#fec81c;fill-opacity:1" /></g><g
         id="g21"
         style="fill:#fec81c;fill-opacity:1"><path
           fill="#ECB026"
           d="M37.6,42.5c-2.3,0-4.3-1.9-4.3-4.3c0-2.3,1.9-4.3,4.3-4.3c2.3,0,4.3,1.9,4.3,4.3     C41.9,40.6,40,42.5,37.6,42.5L37.6,42.5z M37.6,35.2c-1.6,0-3,1.3-3,3c0,1.6,1.3,3,3,3c1.7,0,3-1.3,3-3     C40.6,36.6,39.3,35.2,37.6,35.2L37.6,35.2z"
           id="path23"
           style="fill:#fec81c;fill-opacity:1" /></g></g><g
       id="g25"
       style="fill:#fec81c;fill-opacity:1"><g
         id="g27"
         style="fill:#fec81c;fill-opacity:1"><path
           fill="#ECB026"
           d="M33.9,36.9c-0.1,0-0.2,0-0.3-0.1l-12.9-7.4c-0.3-0.2-0.4-0.6-0.2-0.9c0.2-0.3,0.6-0.4,0.9-0.2l12.9,7.4     c0.3,0.2,0.4,0.6,0.2,0.9C34.3,36.8,34.1,36.9,33.9,36.9L33.9,36.9z"
           id="path29"
           style="fill:#fec81c;fill-opacity:1" /></g><g
         id="g31"
         style="fill:#fec81c;fill-opacity:1"><path
           fill="#ECB026"
           d="M21,26.7c-0.2,0-0.4-0.1-0.5-0.3c-0.2-0.3-0.1-0.7,0.2-0.9l12.9-7.4c0.3-0.2,0.7-0.1,0.9,0.2     c0.2,0.3,0.1,0.7-0.2,0.9l-12.9,7.4C21.3,26.6,21.2,26.7,21,26.7L21,26.7z"
           id="path33"
           style="fill:#fec81c;fill-opacity:1" /></g></g></g></svg>
