<?xml version="1.0" encoding="utf-8"?>
<!-- Generator: Adobe Illustrator 17.1.0, SVG Export Plug-In . SVG Version: 6.00 Build 0)  -->
<!DOCTYPE svg PUBLIC "-//W3C//DTD SVG 1.1//EN" "http://www.w3.org/Graphics/SVG/1.1/DTD/svg11.dtd">
<svg version="1.1" id="Laag_1" xmlns="http://www.w3.org/2000/svg" xmlns:xlink="http://www.w3.org/1999/xlink" x="0px" y="0px"
	 viewBox="0 0 56.7 56.7" enable-background="new 0 0 56.7 56.7" xml:space="preserve">
<g>
	<g>
		<path fill="#ECB026" d="M28.3,56.6c-15.6,0-28.3-12.7-28.3-28.3c0-15.6,12.7-28.3,28.3-28.3s28.3,12.7,28.3,28.3
			C56.6,43.9,43.9,56.6,28.3,56.6L28.3,56.6z M28.3,1.3c-14.9,0-27,12.1-27,27c0,14.9,12.1,27,27,27s27-12.1,27-27
			C55.3,13.5,43.2,1.3,28.3,1.3L28.3,1.3z"/>
	</g>
</g>
<g>
	<g>
		<path fill="#ECB026" d="M26.3,44.3L10.7,28.7L24.5,15h15.6v15.6L26.3,44.3L26.3,44.3z M12.5,28.7l13.8,13.8L38.8,30V16.2H25
			L12.5,28.7L12.5,28.7z"/>
	</g>
	<g>
		<g>
			<path fill="#ECB026" d="M21.2,31.3c-0.2,0-0.3-0.1-0.4-0.2c-0.2-0.2-0.2-0.6,0-0.9l7.2-7.2c0.2-0.2,0.6-0.2,0.9,0
				c0.2,0.2,0.2,0.6,0,0.9l-7.2,7.2C21.5,31.2,21.3,31.3,21.2,31.3L21.2,31.3z"/>
		</g>
		<g>
			<path fill="#ECB026" d="M24.4,34.5c-0.2,0-0.3-0.1-0.4-0.2c-0.2-0.2-0.2-0.6,0-0.9l7.2-7.2c0.2-0.2,0.6-0.2,0.9,0
				c0.2,0.2,0.2,0.6,0,0.9l-7.2,7.2C24.7,34.4,24.6,34.5,24.4,34.5L24.4,34.5z"/>
		</g>
	</g>
	<g>
		<path fill="#ECB026" d="M33.9,23.5c-0.6,0-1.2-0.2-1.7-0.7c-0.9-0.9-0.9-2.4,0-3.3c0.4-0.4,1-0.7,1.7-0.7l0,0
			c0.6,0,1.2,0.2,1.7,0.7c0.9,0.9,0.9,2.4,0,3.3C35.1,23.3,34.5,23.5,33.9,23.5L33.9,23.5z M33.9,20.1c-0.3,0-0.6,0.1-0.8,0.3
			c-0.4,0.4-0.4,1.1,0,1.6c0.4,0.4,1.1,0.4,1.5,0c0.4-0.4,0.4-1.1,0-1.6C34.4,20.2,34.1,20.1,33.9,20.1L33.9,20.1z"/>
	</g>
</g>
</svg>
