<svg version="1.1" id="Layer_1" xmlns="http://www.w3.org/2000/svg" xmlns:xlink="http://www.w3.org/1999/xlink" x="0px" y="0px"
   viewBox="0 0 1190.6 841.9" enable-background="new 0 0 1190.6 841.9" xml:space="preserve">
      <g>
        <path fill="#fec81c" d="M551.1,399.5c17.4-12.3,42.8-39.7,42.8-94.2c0-112.4-108.9-112.4-144.6-112.4L238.5,193
          c-1.4,0-2.5,1.1-2.5,2.5v445.6c0,1.4,1.1,2.5,2.5,2.5h175.5c2.1,0,4.6,0,7.5,0.1l3.7,0.1c4.2,0.1,8.9,0.2,14.1,0.2
          c45.4,0,81-6.3,108.7-19.2c44.8-20.9,67.5-58.2,67.5-110.7C615.5,446.4,576.8,413.8,551.1,399.5z M526.7,391.2l-22.1,7.1
          c-1,0.3-1.7,1.3-1.7,2.4s0.7,2,1.8,2.3l22.3,6.5c2.8,0.8,69.5,21.1,69.5,104.4c0,44.5-19,75.9-56.5,93.4
          c-25.1,11.7-58,17.4-100.6,17.4c-5.7,0-10.9-0.1-15.3-0.2l-0.8,0c-3.6-0.1-6.7-0.1-9.2-0.1H255.2V212.1h180.4l5.9,0
          c2.4,0,5.1,0,7.9,0c53.9,0,125.5,9.7,125.5,93.3C574.9,374.4,528.6,390.6,526.7,391.2z"/>
        <path fill="#fec81c" d="M331.6,384.9h105.5c42.9,0,64.7-19.9,64.7-59.1c0-43.6-34.8-59.1-64.7-59.1H331.6c-1.4,0-2.5,1.1-2.5,2.5
          v113.3C329.1,383.8,330.2,384.9,331.6,384.9z M348.2,365.8v-80h88.8c10.7,0,45.5,2.9,45.5,40c0,28.4-13.2,40-45.5,40H348.2z"/>
        <path fill="#0072AB" d="M331.6,436.3c-1.4,0-2.5,1.1-2.5,2.5v125.8c0,1.4,1.1,2.5,2.5,2.5h117.9c47.5,0,71.6-22,71.6-65.4
          c0-48.3-38.6-65.4-71.6-65.4H331.6z M348.2,547.9v-92.5h101.2c12.3,0,52.4,3.3,52.4,46.3c0,32.8-15.2,46.2-52.4,46.2H348.2z"/>
        <path fill="#fec81c" d="M716.1,453h149.2c1.3,0,2.4-1,2.5-2.3l0.3-6.7c0.1-1.2,1.4-30.8-19.1-52.4c-13.1-13.8-31.8-20.8-55.5-20.8
          c-76.8,0-79.6,71.7-79.7,72.4l-0.2,7.3c0,0.7,0.2,1.3,0.7,1.8C714.8,452.7,715.5,453,716.1,453z M734.4,433.9
          c3.5-15.2,15.8-44,59.1-44c18.2,0,32.2,5,41.6,14.8c8.9,9.3,12.1,21.4,13.3,29.2H734.4z"/>
        <path fill="#fec81c" d="M789.6,305.6c-151.3,0-167.7,121.7-167.7,174.1c0,79.8,44.3,173.1,169.2,173.1c131.2,0,155-110.8,155.3-112
          l1.7-8.5c0.1-0.7,0-1.5-0.5-2c-0.5-0.6-1.2-0.9-1.9-0.9H853c-1.1,0-2.1,0.8-2.4,1.9l-1.3,5.4c-0.4,1.3-9.2,32.4-57.3,32.4
          c-18,0-32.4-5.3-42.9-15.9c-13.3-13.5-17.8-32.6-19.3-44.3h221c1.4,0,2.5-1.1,2.5-2.5v-7.1C953.3,453.8,941.5,305.6,789.6,305.6z
           M924,548.5c-10.3,28-42.5,85.2-133,85.2c-142.8,0-150-128.2-150-153.9c0-57.9,19.3-154.9,148.6-154.9
          c124.3,0,142.6,113.3,144.5,164.9H712.5c-1.3,0-2.4,1.1-2.5,2.4l-0.1,7c0,1.7-0.2,41.3,25.5,67.3c14.2,14.4,33.2,21.6,56.6,21.6
          c48.1,0,66.8-26.6,73-39.7H924z"/>
        <path fill="#fec81c" d="M692.1,282.9H887c1.4,0,2.5-1.1,2.5-2.5v-57.5c0-1.4-1.1-2.5-2.5-2.5H692.1c-1.4,0-2.5,1.1-2.5,2.5v57.5
          C689.7,281.8,690.8,282.9,692.1,282.9z M870.3,239.5v24.2H708.8v-24.2H870.3z"/>
      </g>
</svg>
