<svg version="1.1" id="Laag_1" xmlns="http://www.w3.org/2000/svg" xmlns:xlink="http://www.w3.org/1999/xlink" x="0px" y="0px"
       viewBox="0 0 28.4 28.4" enable-background="new 0 0 28.4 28.4" xml:space="preserve">
    <path fill="#fec81c" d="M21.6,0.6l-0.4-0.1c-1.1-0.2-2.1-0.3-3.1-0.3c-2.6,0-4.5,0.8-5.9,2.3c-1.5,1.7-2.1,4.3-1.8,7.5H6.7
      c-0.1,0-0.1,0.1-0.1,0.1v5.8c0,0.1,0.1,0.1,0.1,0.1h3.9V28c0,0.1,0.1,0.1,0.1,0.1h6c0.1,0,0.1-0.1,0.1-0.1V16.1h3.7
      c0.1,0,0.1,0,0.1-0.1l0.1-0.4c0.1-0.3,0.3-1.9,0.6-3.7l0-0.1c0.1-0.4,0.1-0.8,0.1-0.9l0.1-0.6c0,0,0-0.1,0-0.1c0,0-0.1-0.1-0.1-0.1
      h-0.6c-0.3,0-0.9,0-1.5,0c-0.8,0-1.7,0-2.5,0c-0.1-2.6,0.2-3.4,0.4-3.7C17.3,6.3,17.6,6,18.9,6c0.5,0,1,0,1.4,0.1c0.3,0,0.5,0,0.7,0
      h0.5c0.1,0,0.1-0.1,0.1-0.1V0.8C21.7,0.7,21.7,0.6,21.6,0.6z M16.1,5.6c-0.6,0.9-0.6,2.8-0.6,4.8l0,0c0,0.1,0,0.3,0,0.4v0.5
      c0,0.1,0.1,0.1,0.1,0.1h0.5c0.8,0,1.8,0,2.7,0l1.2,0l0,0.3c-0.1,0.8-0.3,2.2-0.4,3h-3.9c-0.1,0-0.1,0.1-0.1,0.1v11.9h-3.6V14.9
      c0-0.1-0.1-0.1-0.1-0.1H7.9v-3.4h3.9c0,0,0.1,0,0.1-0.1c0,0,0-0.1,0-0.1l-0.1-0.6c-0.4-3.2,0-5.6,1.3-7.2c1.1-1.2,2.7-1.9,4.9-1.9
      c0.7,0,1.5,0.1,2.2,0.2v2.9c-0.4,0-0.9-0.1-1.4-0.1C17.5,4.6,16.5,5,16.1,5.6z"/>
</svg>
