<svg version="1.1" id="Layer_1" xmlns="http://www.w3.org/2000/svg" xmlns:xlink="http://www.w3.org/1999/xlink" x="0px" y="0px"
     viewBox="0 0 28.4 28.4" enable-background="new 0 0 28.4 28.4" xml:space="preserve">
      <g>
        <path fill="#fec81c" d="M21,25.9c-4.3,0-8.8-2-12.3-5.5C5,16.7,3,12.1,3.1,7.7l0-0.2l0.1-0.1C3.6,7,3.9,6.7,4.2,6.4
          c1.2-1.2,2.5-2.1,4.1-2.6c0.1-0.1,0.3-0.1,0.5-0.1c0.5,0,1.4,0.3,1.6,0.8c0.5,1.5,1.2,3.5,1.7,5.3c0.1,0.4,0,1.4-0.5,1.7l-1.8,1.1
          c-0.1,0.1-0.2,0.2-0.2,0.3c-0.1,0.3,0.1,0.7,0.3,1c0.7,1,1.5,1.9,2.4,2.8c0.9,0.9,1.9,1.7,2.8,2.4c0.5,0.4,1.1,0.4,1.3,0.1l1.1-1.8
          c0.3-0.5,1.1-0.5,1.4-0.5c0.1,0,0.2,0,0.3,0c2.3,0.5,3.7,1,5.4,1.7c0.5,0.2,0.9,1.4,0.7,2c-0.6,1.5-1.5,2.9-2.6,4.1
          c-0.3,0.3-0.7,0.6-1.1,0.9l-0.1,0.1L21,25.9L21,25.9z M4.1,7.9c0,4.1,1.8,8.4,5.2,11.7l0.1,0.1c3.3,3.3,7.5,5.2,11.6,5.2l0.1,0
          c0.3-0.2,0.6-0.5,0.8-0.7c1.1-1.1,1.9-2.3,2.4-3.7c0.1-0.2-0.1-0.7-0.2-0.8c-1.6-0.7-2.9-1.1-5.1-1.6c-0.3,0-0.6,0.1-0.7,0.1
          l-1.1,1.7c-0.5,0.8-1.8,0.9-2.8,0.2c-1-0.7-2-1.6-2.9-2.5c-0.9-1-1.8-1.9-2.5-2.9c-0.4-0.6-0.6-1.2-0.5-1.8c0.1-0.4,0.3-0.8,0.6-1
          l1.8-1.1c0-0.1,0.1-0.5,0.1-0.6c-0.5-1.8-1.2-3.8-1.7-5.3c0,0-0.4-0.1-0.7-0.1c-0.1,0-0.1,0-0.1,0C7.2,5.2,6,6,4.9,7.1
          C4.6,7.3,4.4,7.6,4.1,7.9L4.1,7.9z"/>
      </g>
</svg>
