<?xml version="1.0" encoding="UTF-8" standalone="no"?>
<svg
   xmlns:dc="http://purl.org/dc/elements/1.1/"
   xmlns:cc="http://creativecommons.org/ns#"
   xmlns:rdf="http://www.w3.org/1999/02/22-rdf-syntax-ns#"
   xmlns:svg="http://www.w3.org/2000/svg"
   xmlns="http://www.w3.org/2000/svg"
   xmlns:sodipodi="http://sodipodi.sourceforge.net/DTD/sodipodi-0.dtd"
   xmlns:inkscape="http://www.inkscape.org/namespaces/inkscape"
   version="1.1"
   id="Layer_1"
   x="0px"
   y="0px"
   viewBox="0 0 60 60"
   enable-background="new 0 0 28.4 28.4"
   xml:space="preserve"
   inkscape:version="0.48.5 r10040"
   width="100%"
   height="100%"
   sodipodi:docname="top.svg"><metadata
     id="metadata5621"><rdf:RDF><cc:Work
         rdf:about=""><dc:format>image/svg+xml</dc:format><dc:type
           rdf:resource="http://purl.org/dc/dcmitype/StillImage" /><dc:title></dc:title></cc:Work></rdf:RDF></metadata><defs
     id="defs5619" /><sodipodi:namedview
     pagecolor="#ffffff"
     bordercolor="#666666"
     borderopacity="1"
     objecttolerance="10"
     gridtolerance="10"
     guidetolerance="10"
     inkscape:pageopacity="0"
     inkscape:pageshadow="2"
     inkscape:window-width="1920"
     inkscape:window-height="1056"
     id="namedview5617"
     showgrid="false"
     inkscape:zoom="5.6568542"
     inkscape:cx="56.67971"
     inkscape:cy="40.388233"
     inkscape:window-x="1920"
     inkscape:window-y="24"
     inkscape:window-maximized="1"
     inkscape:current-layer="Layer_1" /><g
     id="g6182"
     transform="translate(36.134315,41.138061)"
     style="fill:#5a5a5a;fill-opacity:1"><path
       d="m -6.2576277,-37.705509 c -14.8200003,0 -26.8750003,12.05625 -26.8750003,26.875 0,14.8187509 12.055,26.875001 26.8750003,26.875001 14.818751,0 26.8750007,-12.0562501 26.8750007,-26.875001 0,-14.81875 -12.0562497,-26.875 -26.8750007,-26.875 m 0,55.000001 c -15.5075003,0 -28.1250003,-12.6162501 -28.1250003,-28.125001 0,-15.50875 12.6175,-28.125 28.1250003,-28.125 15.507501,0 28.1250007,12.61625 28.1250007,28.125 0,15.5087509 -12.6174997,28.125001 -28.1250007,28.125001"
       style="fill:#5a5a5a;fill-opacity:1;fill-rule:nonzero;stroke:none"
       id="path64"
       inkscape:connector-curvature="0" /><g
       id="g6190"
       transform="translate(0,4.2118645)"
       style="fill:#5a5a5a;fill-opacity:1"><path
         inkscape:connector-curvature="0"
         id="path1230"
         style="fill:#5a5a5a;fill-opacity:1;fill-rule:nonzero;stroke:none"
         d="m -15.054128,-16.846759 c -0.1925,0 -0.38375,-0.08875 -0.505,-0.2575 -0.2025,-0.27875 -0.14125,-0.67 0.1375,-0.8725 l 8.7937503,-6.39625 c 0.22,-0.16 0.515,-0.16 0.735,0 l 8.791251,6.39625 c 0.28,0.2025 0.34125,0.59375 0.13875,0.8725 -0.202501,0.28 -0.595001,0.33875 -0.872501,0.1375 l -8.425,-6.12875 -8.4262503,6.12875 c -0.11125,0.08125 -0.23875,0.12 -0.3675,0.12" /><path
         inkscape:connector-curvature="0"
         id="path1234"
         style="fill:#5a5a5a;fill-opacity:1;fill-rule:nonzero;stroke:none"
         d="m -6.2601273,-3.7706336 c -0.345,0 -0.625,-0.2800001 -0.625,-0.6250001 l 0,-19.4725003 c 0,-0.345 0.28,-0.625 0.625,-0.625 0.345,0 0.625,0.28 0.625,0.625 l 0,19.4725003 c 0,0.345 -0.28,0.6250001 -0.625,0.6250001" /></g></g></svg>