<svg xmlns:svg="http://www.w3.org/2000/svg" xmlns="http://www.w3.org/2000/svg" version="1.1" x="0" y="0" viewBox="0 0 60 60" enable-background="new 0 0 28.4 28.4" xml:space="preserve" width="100" height="100"><style>.s0{fill:#5a5a5a;}</style><g transform="translate(36.134315,41.138061)" fill="#5a5a5a"><path d="m-6.3-37.7c-14.8 0-26.9 12.1-26.9 26.9 0 14.8 12.1 26.9 26.9 26.9 14.8 0 26.9-12.1 26.9-26.9 0-14.8-12.1-26.9-26.9-26.9m0 55c-15.5 0-28.1-12.6-28.1-28.1 0-15.5 12.6-28.1 28.1-28.1 15.5 0 28.1 12.6 28.1 28.1 0 15.5-12.6 28.1-28.1 28.1" fill="#5a5a5a"/><g transform="translate(0,4.2118645)" fill="#5a5a5a"><path d="m-15.1-16.8c-0.2 0-0.4-0.1-0.5-0.3-0.2-0.3-0.1-0.7 0.1-0.9l8.8-6.4c0.2-0.2 0.5-0.2 0.7 0l8.8 6.4c0.3 0.2 0.3 0.6 0.1 0.9-0.2 0.3-0.6 0.3-0.9 0.1l-8.4-6.1-8.4 6.1c-0.1 0.1-0.2 0.1-0.4 0.1M-6.3-3.8c-0.3 0-0.6-0.3-0.6-0.6l0-19.5c0-0.3 0.3-0.6 0.6-0.6 0.3 0 0.6 0.3 0.6 0.6l0 19.5c0 0.3-0.3 0.6-0.6 0.6" fill="#5a5a5a"/></g></g></svg>
