<svg xmlns="http://www.w3.org/2000/svg" width="1001.25" height="55"><defs><clipPath><path d="M0 900h1400V0H0v900z"/></clipPath><clipPath id="a"><path d="M155.38 744.21h9.418v-9.42h-9.42v9.42z"/></clipPath><clipPath id="b"><path d="M170.79 744.21h9.42v-9.42h-9.42v9.42z"/></clipPath><clipPath id="c"><path d="M186.202 744.21h9.42v-9.42h-9.42v9.42z"/></clipPath></defs><g><path d="M.008 0v28.75h1001.055V0z" fill="#ccc"/><path d="M22.247 15.625c0 3.25-2.635 5.886-5.886 5.886-3.25 0-5.885-2.634-5.885-5.885 0-3.25 2.634-5.886 5.886-5.886 3.252 0 5.887 2.634 5.887 5.885" fill="#e74c3c" clip-path="url(#a)" opacity=".71"/><path d="M41.51 15.625c0 3.25-2.634 5.886-5.885 5.886-3.25 0-5.886-2.634-5.886-5.885 0-3.25 2.634-5.886 5.885-5.886 3.25 0 5.886 2.634 5.886 5.885" fill="#f1c40f" clip-path="url(#b)" opacity=".71"/><path d="M60.776 15.625c0 3.25-2.635 5.886-5.886 5.886-3.25 0-5.886-2.634-5.886-5.885 0-3.25 2.635-5.886 5.886-5.886 3.25 0 5.886 2.634 5.886 5.885" fill="#2ecc71" clip-path="url(#c)" opacity=".71"/><path d="M208.75 11.304c-.495-1.486-1.68-2.553-3.75-2.553H91.25c-2.07 0-3.255 1.12-3.75 2.554l-5 15.534c-.43 1.248-2.5 1.913-2.5 1.913h136.25s-2.07-.547-2.5-1.912l-5-15.534z" fill="#e6e6e6"/><path d="M1001.25 55H0V28.75h1001.25V55z" fill="#e6e6e6"/></g></svg>