<svg xmlns="http://www.w3.org/2000/svg" width="1601.3" height="55"><style>.s0{opacity:0.7;}.s1{fill:#e6e6e6;}</style><defs><clipPath><path d="M0 900h1400V0H0v900z"/></clipPath><clipPath><path d="M155.4 744.2h9.4v-9.4h-9.4v9.4z"/></clipPath><clipPath><path d="M170.8 744.2h9.4v-9.4h-9.4v9.4z"/></clipPath><clipPath><path d="M186.2 744.2h9.4v-9.4h-9.4v9.4z"/></clipPath></defs><path d="M0 0v28.8h1601.9V.1z" fill="#ccc"/><path d="M22.247 15.625c0 3.25-2.625 5.875-5.875 5.875s-5.875-2.625-5.875-5.875 2.625-5.875 5.875-5.875 5.875 2.625 5.875 5.875" fill="#e74c3c" clip-path="url(#clipPath28)" opacity=".7"/><path d="M41.51 15.625c0 3.25-2.624 5.875-5.874 5.875-3.25 0-5.875-2.625-5.875-5.875s2.626-5.875 5.876-5.875c3.25 0 5.875 2.625 5.875 5.875" fill="#f1c40f" clip-path="url(#clipPath44)" opacity=".7"/><path d="M60.776 15.625c0 3.25-2.625 5.875-5.875 5.875s-5.874-2.625-5.874-5.875S51.65 9.75 54.9 9.75s5.876 2.625 5.876 5.875" fill="#2ecc71" clip-path="url(#clipPath60)" opacity=".7"/><path d="M208.75 11.25c-.5-1.5-1.625-2.5-3.75-2.5H91.25c-2.125 0-3.25 1.125-3.75 2.5l-5 15.5C82.125 28 80 28.625 80 28.625h136.25s-2.125-.5-2.5-1.875l-5-15.5zm1354.125 67.5H-41.75V52.5h1604.625z" fill="#e6e6e6"/></svg>