<svg xmlns="http://www.w3.org/2000/svg" width="744.094" height="432"><defs><clipPath id="a"><path d="M0 800h1199.563V0H0v800z"/></clipPath></defs><g clip-path="url(#a)"><path d="M379.76 400.814H77.347V20.868C77.346 9.448 86.603.19 98.023.19H645.99c11.424 0 20.678 9.257 20.678 20.678v379.946H379.76z" fill="#3d3d3d" fill-rule="evenodd"/><path d="M744.21 400.814c0 17.128-13.623 31.016-30.427 31.016H30.233c-16.804 0-30.43-13.888-30.43-31.016H744.21z" fill="#e9e9e9" fill-rule="evenodd"/><path d="M381.08 5.61c2.68 0 4.855 2.17 4.855 4.85 0 2.68-2.174 4.854-4.855 4.854-2.68 0-4.852-2.174-4.852-4.855 0-2.68 2.17-4.85 4.852-4.85" fill="#e9e9e9" fill-rule="evenodd"/><path d="M92.855 20.87h558.31v359.27H92.854V20.87z" fill="#3d3d3d" fill-rule="evenodd"/><path d="M423.71 400.814c0 5.71-4.73 10.34-10.567 10.34h-82.265c-5.835 0-10.57-4.63-10.57-10.34h103.403z" fill="#b3b2b2" fill-rule="evenodd"/></g></svg>